<svg xmlns="http://www.w3.org/2000/svg" viewBox="0 0 100 106" width="240" height="240" role="img" aria-label="Arsenal third jersey">
  <defs>
<clipPath id="clipthars"><path d="M50 6 C44 6 40 9 37 13 C32 14 28 13 24 15 C18 19 13 24 14 30 C13 36 12 42 13 46 C16 49 19 50 22 49 C24 48 26 47 27 46 L27 90 C26.7 94 29.5 97 33.5 97 L66.5 97 C70.5 97 73.3 94 73 90 L73 46 C74 47 76 48 78 49 C81 50 84 49 87 46 C88 42 87 36 86 30 C87 24 82 19 76 15 C72 13 68 14 63 13 C60 9 56 6 50 6 Z"/></clipPath>
<linearGradient id="sheenthars" x1="0%" y1="0%" x2="60%" y2="100%">
  <stop offset="0%" stop-color="#ffffff" stop-opacity="0.24"/>
  <stop offset="30%" stop-color="#ffffff" stop-opacity="0.04"/>
  <stop offset="70%" stop-color="#000000" stop-opacity="0.06"/>
  <stop offset="100%" stop-color="#000000" stop-opacity="0.20"/>
</linearGradient>
<radialGradient id="chestthars" cx="50%" cy="28%" r="38%">
  <stop offset="0%" stop-color="#ffffff" stop-opacity="0.16"/>
  <stop offset="100%" stop-color="#ffffff" stop-opacity="0"/>
</radialGradient>
<radialGradient id="shadowthars" cx="50%" cy="50%" r="50%">
  <stop offset="0%" stop-color="#000000" stop-opacity="0.35"/>
  <stop offset="100%" stop-color="#000000" stop-opacity="0"/>
</radialGradient>
<pattern id="weavethars" width="3.2" height="3.2" patternUnits="userSpaceOnUse" patternTransform="rotate(45)">
  <line x1="0" y1="0" x2="0" y2="3.2" stroke="#000000" stroke-width="0.5" opacity="0.05"/>
</pattern>
<pattern id="motifthars" width="26" height="36" patternUnits="userSpaceOnUse" patternTransform="rotate(18)"><path d="M3 -4 H12 L9 11 H14 L8 28 H1 L5 12 H0 Z M18 14 H24 L21 29 H26 L22 40 H15 L18 28 H14 Z" fill="#D9BD5B" opacity="0.2"/></pattern>
  </defs>
  <ellipse cx="50" cy="99" rx="34" ry="5" fill="url(#shadowthars)"/>
  <g clip-path="url(#clipthars)">
    <rect width="100" height="100" fill="#F4DF91"/>
    <rect width="100" height="100" fill="url(#motifthars)"/>
    <rect width="100" height="100" fill="url(#weavethars)"/>
    <path d="M39 11 L24 17 L17 25 M61 11 L76 17 L83 25" stroke="#141A32" stroke-width="3.8" fill="none"/>
    <path d="M37 13 C31 20 27 32 27 46 M63 13 C69 20 73 32 73 46 M28 91 C40 92 60 92 72 91" fill="none" stroke="#000000" stroke-opacity="0.12" stroke-width="0.65"/>
    <path d="M40 8 C43 17 57 17 60 8" fill="none" stroke="#141A32" stroke-width="3.1" stroke-linecap="round" stroke-linejoin="round"/>
    <path d="M40 8 C43 17 57 17 60 8" fill="none" stroke="#722231" stroke-width="0.8" stroke-linecap="round" stroke-linejoin="round"/>
    <path d="M12 45 C15 48 19 49.5 24 48.5 M88 45 C85 48 81 49.5 76 48.5" fill="none" stroke="#141A32" stroke-width="3" stroke-linecap="round"/>
    <path d="M12 45 C15 48 19 49.5 24 48.5 M88 45 C85 48 81 49.5 76 48.5" fill="none" stroke="#722231" stroke-width="0.8" stroke-linecap="round"/>
    <rect width="100" height="100" fill="url(#chestthars)"/>
    <rect width="100" height="100" fill="url(#sheenthars)"/>
  </g>
  <path d="M50 6 C44 6 40 9 37 13 C32 14 28 13 24 15 C18 19 13 24 14 30 C13 36 12 42 13 46 C16 49 19 50 22 49 C24 48 26 47 27 46 L27 90 C26.7 94 29.5 97 33.5 97 L66.5 97 C70.5 97 73.3 94 73 90 L73 46 C74 47 76 48 78 49 C81 50 84 49 87 46 C88 42 87 36 86 30 C87 24 82 19 76 15 C72 13 68 14 63 13 C60 9 56 6 50 6 Z" fill="none" stroke="#000000" stroke-opacity="0.3" stroke-width="1.3"/>
</svg>
