<svg xmlns="http://www.w3.org/2000/svg" viewBox="0 0 100 106" width="240" height="240" role="img" aria-label="Manchester United third jersey">
  <defs>
<clipPath id="clipthmun"><path d="M50 6 C44 6 40 9 37 13 C32 14 28 13 24 15 C18 19 13 24 14 30 C13 36 12 42 13 46 C16 49 19 50 22 49 C24 48 26 47 27 46 L27 90 C26.7 94 29.5 97 33.5 97 L66.5 97 C70.5 97 73.3 94 73 90 L73 46 C74 47 76 48 78 49 C81 50 84 49 87 46 C88 42 87 36 86 30 C87 24 82 19 76 15 C72 13 68 14 63 13 C60 9 56 6 50 6 Z"/></clipPath>
<linearGradient id="sheenthmun" x1="0%" y1="0%" x2="60%" y2="100%">
  <stop offset="0%" stop-color="#ffffff" stop-opacity="0.24"/>
  <stop offset="30%" stop-color="#ffffff" stop-opacity="0.04"/>
  <stop offset="70%" stop-color="#000000" stop-opacity="0.06"/>
  <stop offset="100%" stop-color="#000000" stop-opacity="0.20"/>
</linearGradient>
<radialGradient id="chestthmun" cx="50%" cy="28%" r="38%">
  <stop offset="0%" stop-color="#ffffff" stop-opacity="0.16"/>
  <stop offset="100%" stop-color="#ffffff" stop-opacity="0"/>
</radialGradient>
<radialGradient id="shadowthmun" cx="50%" cy="50%" r="50%">
  <stop offset="0%" stop-color="#000000" stop-opacity="0.35"/>
  <stop offset="100%" stop-color="#000000" stop-opacity="0"/>
</radialGradient>
<pattern id="weavethmun" width="3.2" height="3.2" patternUnits="userSpaceOnUse" patternTransform="rotate(45)">
  <line x1="0" y1="0" x2="0" y2="3.2" stroke="#000000" stroke-width="0.5" opacity="0.025"/>
</pattern>

  </defs>
  <ellipse cx="50" cy="99" rx="34" ry="5" fill="url(#shadowthmun)"/>
  <g clip-path="url(#clipthmun)">
    <rect width="100" height="100" fill="#EDEEE1"/>
    
    <rect width="100" height="100" fill="url(#weavethmun)"/>
    <path d="M39 11 L24 16 Q19 19 16 25 M61 11 L76 16 Q81 19 84 25" stroke="#17352D" stroke-width="2" fill="none"/>
    <path d="M37 13 C31 20 27 32 27 46 M63 13 C69 20 73 32 73 46 M28 93 C40 94 60 94 72 93" fill="none" stroke="#000000" stroke-opacity="0.1" stroke-width="0.6"/>
    <path d="M40 8 C43 17 57 17 60 8" fill="none" stroke="#691C2B" stroke-width="4" stroke-linecap="round" stroke-linejoin="round"/>
    <path d="M40 8 C43 17 57 17 60 8" fill="none" stroke="#17352D" stroke-width="0.8" stroke-linecap="round" stroke-linejoin="round" transform="translate(0,-1)"/>
    <path d="M12 45 C15 48 19 49.5 24 48.5 M88 45 C85 48 81 49.5 76 48.5" fill="none" stroke="#691C2B" stroke-width="3.8" stroke-linecap="round"/>
    <path d="M12 45 C15 48 19 49.5 24 48.5 M88 45 C85 48 81 49.5 76 48.5" fill="none" stroke="#17352D" stroke-width="0.8" stroke-linecap="round" transform="translate(0,1)"/>
    <rect width="100" height="100" fill="url(#chestthmun)"/>
    <rect width="100" height="100" fill="url(#sheenthmun)"/>
  </g>
  <path d="M50 6 C44 6 40 9 37 13 C32 14 28 13 24 15 C18 19 13 24 14 30 C13 36 12 42 13 46 C16 49 19 50 22 49 C24 48 26 47 27 46 L27 90 C26.7 94 29.5 97 33.5 97 L66.5 97 C70.5 97 73.3 94 73 90 L73 46 C74 47 76 48 78 49 C81 50 84 49 87 46 C88 42 87 36 86 30 C87 24 82 19 76 15 C72 13 68 14 63 13 C60 9 56 6 50 6 Z" fill="none" stroke="#000000" stroke-opacity="0.3" stroke-width="1.3"/>
</svg>
