<svg xmlns="http://www.w3.org/2000/svg" viewBox="0 0 100 106" width="240" height="240" role="img" aria-label="Fulham away jersey">
  <defs>
<clipPath id="clipawful"><path d="M50 6 C44 6 40 9 37 13 C32 14 28 13 24 15 C18 19 13 24 14 30 C13 36 12 42 13 46 C16 49 19 50 22 49 C24 48 26 47 27 46 L27 90 C26.7 94 29.5 97 33.5 97 L66.5 97 C70.5 97 73.3 94 73 90 L73 46 C74 47 76 48 78 49 C81 50 84 49 87 46 C88 42 87 36 86 30 C87 24 82 19 76 15 C72 13 68 14 63 13 C60 9 56 6 50 6 Z"/></clipPath>
<linearGradient id="sheenawful" x1="0%" y1="0%" x2="60%" y2="100%">
  <stop offset="0%" stop-color="#ffffff" stop-opacity="0.24"/>
  <stop offset="30%" stop-color="#ffffff" stop-opacity="0.04"/>
  <stop offset="70%" stop-color="#000000" stop-opacity="0.06"/>
  <stop offset="100%" stop-color="#000000" stop-opacity="0.20"/>
</linearGradient>
<radialGradient id="chestawful" cx="50%" cy="28%" r="38%">
  <stop offset="0%" stop-color="#ffffff" stop-opacity="0.16"/>
  <stop offset="100%" stop-color="#ffffff" stop-opacity="0"/>
</radialGradient>
<radialGradient id="shadowawful" cx="50%" cy="50%" r="50%">
  <stop offset="0%" stop-color="#000000" stop-opacity="0.35"/>
  <stop offset="100%" stop-color="#000000" stop-opacity="0"/>
</radialGradient>
<pattern id="weaveawful" width="3.2" height="3.2" patternUnits="userSpaceOnUse" patternTransform="rotate(45)">
  <line x1="0" y1="0" x2="0" y2="3.2" stroke="#000000" stroke-width="0.5" opacity="0.025"/>
</pattern>

  </defs>
  <ellipse cx="50" cy="99" rx="34" ry="5" fill="url(#shadowawful)"/>
  <g clip-path="url(#clipawful)">
    <rect width="100" height="100" fill="#181A20"/>
    <path d="M-1 0 H11 V4 H14 V11 H9 V14 H-2 V7 H-1 Z" fill="#DC142F"/><path d="M27 0 H39 V4 H42 V11 H37 V14 H26 V7 H27 Z" fill="#DC142F"/><path d="M52 0 H64 V4 H67 V11 H62 V14 H51 V7 H52 Z" fill="#DC142F"/><path d="M77 0 H89 V4 H92 V11 H87 V14 H76 V7 H77 Z" fill="#DC142F"/><path d="M13 12 H25 V16 H28 V23 H23 V26 H12 V19 H13 Z" fill="#DC142F"/><path d="M38 12 H50 V16 H53 V23 H48 V26 H37 V19 H38 Z" fill="#DC142F"/><path d="M66 12 H78 V16 H81 V23 H76 V26 H65 V19 H66 Z" fill="#DC142F"/><path d="M91 12 H103 V16 H106 V23 H101 V26 H90 V19 H91 Z" fill="#DC142F"/><path d="M-1 24 H11 V28 H14 V35 H9 V38 H-2 V31 H-1 Z" fill="#DC142F"/><path d="M27 24 H39 V28 H42 V35 H37 V38 H26 V31 H27 Z" fill="#DC142F"/><path d="M52 24 H64 V28 H67 V35 H62 V38 H51 V31 H52 Z" fill="#DC142F"/><path d="M77 24 H89 V28 H92 V35 H87 V38 H76 V31 H77 Z" fill="#DC142F"/><path d="M13 36 H25 V40 H28 V47 H23 V50 H12 V43 H13 Z" fill="#DC142F"/><path d="M38 36 H50 V40 H53 V47 H48 V50 H37 V43 H38 Z" fill="#DC142F"/><path d="M66 36 H78 V40 H81 V47 H76 V50 H65 V43 H66 Z" fill="#DC142F"/><path d="M91 36 H103 V40 H106 V47 H101 V50 H90 V43 H91 Z" fill="#DC142F"/><path d="M-1 48 H11 V52 H14 V59 H9 V62 H-2 V55 H-1 Z" fill="#DC142F"/><path d="M27 48 H39 V52 H42 V59 H37 V62 H26 V55 H27 Z" fill="#DC142F"/><path d="M52 48 H64 V52 H67 V59 H62 V62 H51 V55 H52 Z" fill="#DC142F"/><path d="M77 48 H89 V52 H92 V59 H87 V62 H76 V55 H77 Z" fill="#DC142F"/><path d="M13 60 H25 V64 H28 V71 H23 V74 H12 V67 H13 Z" fill="#DC142F"/><path d="M38 60 H50 V64 H53 V71 H48 V74 H37 V67 H38 Z" fill="#DC142F"/><path d="M66 60 H78 V64 H81 V71 H76 V74 H65 V67 H66 Z" fill="#DC142F"/><path d="M91 60 H103 V64 H106 V71 H101 V74 H90 V67 H91 Z" fill="#DC142F"/><path d="M-1 72 H11 V76 H14 V83 H9 V86 H-2 V79 H-1 Z" fill="#DC142F"/><path d="M27 72 H39 V76 H42 V83 H37 V86 H26 V79 H27 Z" fill="#DC142F"/><path d="M52 72 H64 V76 H67 V83 H62 V86 H51 V79 H52 Z" fill="#DC142F"/><path d="M77 72 H89 V76 H92 V83 H87 V86 H76 V79 H77 Z" fill="#DC142F"/><path d="M13 84 H25 V88 H28 V95 H23 V98 H12 V91 H13 Z" fill="#DC142F"/><path d="M38 84 H50 V88 H53 V95 H48 V98 H37 V91 H38 Z" fill="#DC142F"/><path d="M66 84 H78 V88 H81 V95 H76 V98 H65 V91 H66 Z" fill="#DC142F"/><path d="M91 84 H103 V88 H106 V95 H101 V98 H90 V91 H91 Z" fill="#DC142F"/><path d="M-1 96 H11 V100 H14 V107 H9 V110 H-2 V103 H-1 Z" fill="#DC142F"/><path d="M27 96 H39 V100 H42 V107 H37 V110 H26 V103 H27 Z" fill="#DC142F"/><path d="M52 96 H64 V100 H67 V107 H62 V110 H51 V103 H52 Z" fill="#DC142F"/><path d="M77 96 H89 V100 H92 V107 H87 V110 H76 V103 H77 Z" fill="#DC142F"/>
    <rect width="100" height="100" fill="url(#weaveawful)"/>
    <path d="M37 13 C31 20 27 32 27 46 M63 13 C69 20 73 32 73 46 M28 93 C40 94 60 94 72 93" fill="none" stroke="#000000" stroke-opacity="0.1" stroke-width="0.6"/>
    <path d="M38 8 L40 18 L48 14 L50 18 L52 14 L60 18 L62 8 L57 9 L50 14 L43 9 Z" fill="#F4F7FD"/><path d="M50 18 V24" stroke="#171923" stroke-width="0.8"/>
    
    <path d="M12 44 C15 47 19 48.5 24 47.5 M88 44 C85 47 81 48.5 76 47.5" fill="none" stroke="#F4F7FE" stroke-width="2.4" stroke-linecap="round"/>
    
    <rect width="100" height="100" fill="url(#chestawful)"/>
    <rect width="100" height="100" fill="url(#sheenawful)"/>
  </g>
  <path d="M50 6 C44 6 40 9 37 13 C32 14 28 13 24 15 C18 19 13 24 14 30 C13 36 12 42 13 46 C16 49 19 50 22 49 C24 48 26 47 27 46 L27 90 C26.7 94 29.5 97 33.5 97 L66.5 97 C70.5 97 73.3 94 73 90 L73 46 C74 47 76 48 78 49 C81 50 84 49 87 46 C88 42 87 36 86 30 C87 24 82 19 76 15 C72 13 68 14 63 13 C60 9 56 6 50 6 Z" fill="none" stroke="#000000" stroke-opacity="0.3" stroke-width="1.3"/>
</svg>
