<svg xmlns="http://www.w3.org/2000/svg" viewBox="0 0 100 106" width="240" height="240" role="img" aria-label="Newcastle United away jersey">
  <defs>
<clipPath id="clipawnew"><path d="M50 6 C44 6 40 9 37 13 C32 14 28 13 24 15 C18 19 13 24 14 30 C13 36 12 42 13 46 C16 49 19 50 22 49 C24 48 26 47 27 46 L27 90 C26.7 94 29.5 97 33.5 97 L66.5 97 C70.5 97 73.3 94 73 90 L73 46 C74 47 76 48 78 49 C81 50 84 49 87 46 C88 42 87 36 86 30 C87 24 82 19 76 15 C72 13 68 14 63 13 C60 9 56 6 50 6 Z"/></clipPath>
<linearGradient id="sheenawnew" x1="0%" y1="0%" x2="60%" y2="100%">
  <stop offset="0%" stop-color="#ffffff" stop-opacity="0.24"/>
  <stop offset="30%" stop-color="#ffffff" stop-opacity="0.04"/>
  <stop offset="70%" stop-color="#000000" stop-opacity="0.06"/>
  <stop offset="100%" stop-color="#000000" stop-opacity="0.20"/>
</linearGradient>
<radialGradient id="chestawnew" cx="50%" cy="28%" r="38%">
  <stop offset="0%" stop-color="#ffffff" stop-opacity="0.16"/>
  <stop offset="100%" stop-color="#ffffff" stop-opacity="0"/>
</radialGradient>
<radialGradient id="shadowawnew" cx="50%" cy="50%" r="50%">
  <stop offset="0%" stop-color="#000000" stop-opacity="0.35"/>
  <stop offset="100%" stop-color="#000000" stop-opacity="0"/>
</radialGradient>
<pattern id="weaveawnew" width="3.2" height="3.2" patternUnits="userSpaceOnUse" patternTransform="rotate(45)">
  <line x1="0" y1="0" x2="0" y2="3.2" stroke="#000000" stroke-width="0.5" opacity="0.025"/>
</pattern>
<pattern id="motifawnew" width="26" height="26" patternUnits="userSpaceOnUse"><path d="M0 6 H26 V12 H0 Z M0 22 H26 V26 H0 Z" fill="#325468" opacity="0.55"/><path d="M2 2 H7 V5 H11 V1 H15 V7 H20 V3 H24 V10 H20 V14 H15 V10 H10 V15 H6 V9 H2 Z M0 19 H5 V16 H9 V21 H13 V18 H18 V23 H23 V19 H26 V26 H0 Z" fill="#365B6E" opacity="0.28"/></pattern>
  </defs>
  <ellipse cx="50" cy="99" rx="34" ry="5" fill="url(#shadowawnew)"/>
  <g clip-path="url(#clipawnew)">
    <rect width="100" height="100" fill="#102C3C"/>
    <rect width="100" height="100" fill="url(#motifawnew)"/><path d="M39 12 L24 16 Q19 19 16 25 M61 12 L76 16 Q81 19 84 25" stroke="#F5F6F2" stroke-width="1.8" fill="none"/>
    <rect width="100" height="100" fill="url(#weaveawnew)"/>
    <path d="M37 13 C31 20 27 32 27 46 M63 13 C69 20 73 32 73 46 M28 93 C40 94 60 94 72 93" fill="none" stroke="#000000" stroke-opacity="0.1" stroke-width="0.6"/>
    <path d="M39 8 L50 18 L61 8" fill="none" stroke="#F5F6F2" stroke-width="3.8" stroke-linecap="round" stroke-linejoin="round"/>
    <path d="M39 8 L50 18 L61 8" fill="none" stroke="#3BA5B8" stroke-width="1.2" stroke-linecap="round" stroke-linejoin="round" transform="translate(0,-1)"/>
    <path d="M12 44 C15 47 19 48.5 24 47.5 M88 44 C85 47 81 48.5 76 47.5" fill="none" stroke="#F5F6F2" stroke-width="2.6" stroke-linecap="round"/>
    <path d="M12 44 C15 47 19 48.5 24 47.5 M88 44 C85 47 81 48.5 76 47.5" fill="none" stroke="#3BA5B8" stroke-width="1.2" stroke-linecap="round" transform="translate(0,1)"/>
    <rect width="100" height="100" fill="url(#chestawnew)"/>
    <rect width="100" height="100" fill="url(#sheenawnew)"/>
  </g>
  <path d="M50 6 C44 6 40 9 37 13 C32 14 28 13 24 15 C18 19 13 24 14 30 C13 36 12 42 13 46 C16 49 19 50 22 49 C24 48 26 47 27 46 L27 90 C26.7 94 29.5 97 33.5 97 L66.5 97 C70.5 97 73.3 94 73 90 L73 46 C74 47 76 48 78 49 C81 50 84 49 87 46 C88 42 87 36 86 30 C87 24 82 19 76 15 C72 13 68 14 63 13 C60 9 56 6 50 6 Z" fill="none" stroke="#000000" stroke-opacity="0.3" stroke-width="1.3"/>
</svg>
