<svg xmlns="http://www.w3.org/2000/svg" viewBox="0 0 100 106" width="240" height="240" role="img" aria-label="Sunderland away jersey">
  <defs>
<clipPath id="clipawsun"><path d="M50 6 C44 6 40 9 37 13 C32 14 28 13 24 15 C18 19 13 24 14 30 C13 36 12 42 13 46 C16 49 19 50 22 49 C24 48 26 47 27 46 L27 90 C26.7 94 29.5 97 33.5 97 L66.5 97 C70.5 97 73.3 94 73 90 L73 46 C74 47 76 48 78 49 C81 50 84 49 87 46 C88 42 87 36 86 30 C87 24 82 19 76 15 C72 13 68 14 63 13 C60 9 56 6 50 6 Z"/></clipPath>
<linearGradient id="sheenawsun" x1="0%" y1="0%" x2="60%" y2="100%">
  <stop offset="0%" stop-color="#ffffff" stop-opacity="0.24"/>
  <stop offset="30%" stop-color="#ffffff" stop-opacity="0.04"/>
  <stop offset="70%" stop-color="#000000" stop-opacity="0.06"/>
  <stop offset="100%" stop-color="#000000" stop-opacity="0.20"/>
</linearGradient>
<radialGradient id="chestawsun" cx="50%" cy="28%" r="38%">
  <stop offset="0%" stop-color="#ffffff" stop-opacity="0.16"/>
  <stop offset="100%" stop-color="#ffffff" stop-opacity="0"/>
</radialGradient>
<radialGradient id="shadowawsun" cx="50%" cy="50%" r="50%">
  <stop offset="0%" stop-color="#000000" stop-opacity="0.35"/>
  <stop offset="100%" stop-color="#000000" stop-opacity="0"/>
</radialGradient>
<pattern id="weaveawsun" width="3.2" height="3.2" patternUnits="userSpaceOnUse" patternTransform="rotate(45)">
  <line x1="0" y1="0" x2="0" y2="3.2" stroke="#000000" stroke-width="0.5" opacity="0.05"/>
</pattern>
<pattern id="printawsun" width="12" height="12" patternUnits="userSpaceOnUse" patternTransform="rotate(45)">
          <line x1="0" y1="0" x2="0" y2="12" stroke="#D98CAE" stroke-width="0.9" opacity="0.14"/>
          <line x1="6" y1="0" x2="6" y2="12" stroke="#D98CAE" stroke-width="0.5" opacity="0.1"/>
        </pattern></defs>
  <ellipse cx="50" cy="99" rx="34" ry="5" fill="url(#shadowawsun)"/>
  <rect x="0" y="0" width="100" height="100" fill="#F2A6C0" clip-path="url(#clipawsun)"/><rect x="0" y="0" width="100" height="32" fill="#14181B" clip-path="url(#clipawsun)"/>
  <rect x="0" y="0" width="100" height="100" fill="url(#printawsun)" clip-path="url(#clipawsun)"/>
  
  <rect x="0" y="0" width="100" height="100" fill="url(#weaveawsun)" clip-path="url(#clipawsun)"/>
  <path d="M37 13 C31 20 27 32 27 46" fill="none" stroke="rgba(0,0,0,0.18)" stroke-width="0.9" clip-path="url(#clipawsun)"/><path d="M63 13 C69 20 73 32 73 46" fill="none" stroke="rgba(0,0,0,0.18)" stroke-width="0.9" clip-path="url(#clipawsun)"/><path d="M37 13 C31 20 27 32 27 46" fill="none" stroke="#14181B" stroke-width="0.6" opacity="0.55" transform="translate(-0.8,0)" clip-path="url(#clipawsun)"/><path d="M63 13 C69 20 73 32 73 46" fill="none" stroke="#14181B" stroke-width="0.6" opacity="0.55" transform="translate(0.8,0)" clip-path="url(#clipawsun)"/><path d="M28 88.5 C40 90.5 60 90.5 72 88.5" fill="none" stroke="rgba(0,0,0,0.16)" stroke-width="0.9" clip-path="url(#clipawsun)"/>
  <path d="M50 15.5 L50 22" fill="none" stroke="rgba(0,0,0,0.22)" stroke-width="0.8" clip-path="url(#clipawsun)"/><circle cx="50" cy="17.5" r="0.6" fill="rgba(0,0,0,0.35)" clip-path="url(#clipawsun)"/><circle cx="50" cy="21.5" r="0.6" fill="rgba(0,0,0,0.35)" clip-path="url(#clipawsun)"/>
  <path d="M40 8 C43 17 57 17 60 8" fill="none" stroke="#14181B" stroke-width="2.4" stroke-linecap="round" clip-path="url(#clipawsun)"/><path d="M39.3 6.6 C42.6 16.2 57.4 16.2 60.7 6.6" fill="none" stroke="#14181B" stroke-width="1.3" stroke-linecap="round" opacity="0.85" clip-path="url(#clipawsun)"/><path d="M38.6 5.2 C42.2 15.4 57.8 15.4 61.4 5.2" fill="none" stroke="#14181B" stroke-width="0.9" stroke-linecap="round" opacity="0.6" clip-path="url(#clipawsun)"/><path d="M12 44 C14 47.5 18 49.5 23 49" fill="none" stroke="#14181B" stroke-width="2.2" stroke-linecap="round" clip-path="url(#clipawsun)"/><path d="M10.5 45.5 C13 49.5 18 51.5 24 51" fill="none" stroke="#14181B" stroke-width="1" stroke-linecap="round" opacity="0.75" clip-path="url(#clipawsun)"/><path d="M88 44 C86 47.5 82 49.5 77 49" fill="none" stroke="#14181B" stroke-width="2.2" stroke-linecap="round" clip-path="url(#clipawsun)"/><path d="M89.5 45.5 C87 49.5 82 51.5 76 51" fill="none" stroke="#14181B" stroke-width="1" stroke-linecap="round" opacity="0.75" clip-path="url(#clipawsun)"/>
  <rect x="0" y="0" width="100" height="100" fill="url(#chestawsun)" clip-path="url(#clipawsun)"/>
  <rect x="0" y="0" width="100" height="100" fill="url(#sheenawsun)" clip-path="url(#clipawsun)"/>
  <path d="M50 6 C44 6 40 9 37 13 C32 14 28 13 24 15 C18 19 13 24 14 30 C13 36 12 42 13 46 C16 49 19 50 22 49 C24 48 26 47 27 46 L27 90 C26.7 94 29.5 97 33.5 97 L66.5 97 C70.5 97 73.3 94 73 90 L73 46 C74 47 76 48 78 49 C81 50 84 49 87 46 C88 42 87 36 86 30 C87 24 82 19 76 15 C72 13 68 14 63 13 C60 9 56 6 50 6 Z" fill="none" stroke="rgba(0,0,0,0.3)" stroke-width="1.3"/>
  <path d="M40 8 C43 17 57 17 60 8" fill="none" stroke="rgba(0,0,0,0.3)" stroke-width="1.3"/>
</svg>